<?xml version="1.0" encoding="utf-8"?>
<!-- Generator: Adobe Illustrator 26.0.1, SVG Export Plug-In . SVG Version: 6.00 Build 0)  -->
<svg version="1.1" id="Layer_1" xmlns="http://www.w3.org/2000/svg" xmlns:xlink="http://www.w3.org/1999/xlink" x="0px" y="0px"
	 viewBox="0 0 500 329.6" style="enable-background:new 0 0 500 329.6;" xml:space="preserve">
<style type="text/css">
	.leger-logo-blue{fill:#001689;}
</style>
<path class="leger-logo-blue" d="M69.3,143.4c1.4,3,3.1,5.8,5.1,8.4c-9.3,7.2-23,13.8-38.9,15c-19.9,1.5-34.3-5.4-35.4-19.6
	c-0.3-3.6-0.2-9.8,1.3-17.1l23-111.7C26.6,7,23.5,3.1,23.5,3.1s4.2-1.9,14.9-2.8c22.2-1.7,25.2,3.2,22.7,16L36.6,135.4
	c-2.1,10.7,3.2,15.5,13.6,14.7C56.7,149.6,63.4,147.2,69.3,143.4z M481.6,53c-10.4,0-25.8,8-40.6,32.6l1.8-10
	c2.8-15.3,0.7-22.6-17.1-22.6c-8.5,0-12,2.1-12,2.1s2.3,5.3-0.2,19.6l-9.2,52.7h-0.2c-6.2,9.6-20.3,21.7-45,21.7
	c-19.6,0-31.6-13.2-33-30.4c40.6-7.5,64.8-21.2,64.8-42c0-11.6-9.5-23.7-33-23.7c-30.7,0-61.8,24.4-61.8,64.8
	c0,5.8,0.8,11.2,2.2,16.1C285.2,142,270,148,270,148l13.4-76.3c2.1-12.3,5.3-16.4,5.3-16.4S285,53,277.2,53
	c-11.3,0-17.1,3-20.8,11.2C251.1,57.6,243,53,231.5,53c-27,0-57,24-57,74.9c0,1.5,0,3,0.1,4.5c-7.4,8.4-20.6,16.8-41.2,16.8
	c-19.6,0-31.6-13.2-33-30.4c40.6-7.5,64.8-21.2,64.8-42c0-11.6-9.5-23.7-33-23.7c-30.7,0-61.8,24.4-61.8,64.8
	c0,30.8,21.9,49.3,52.1,49.3c26.1,0,45-13,53.9-23.8c4.7,16.1,17.1,23.8,31.9,23.8c12,0,23.5-7.3,32.7-21.5l-2.8,16.2
	c-18.9,9.1-30.9,16-42.2,25.8c-11.3,9.6-19.4,21.9-19.4,35.4c0,14.2,10.1,24,25.8,24c34.1,0,55.6-29.5,64.6-82.4l0.5-2.7
	c12.4-6,25.5-13.2,34.2-19.2c8.5,15.6,25.4,24.5,46.3,24.5c25.3,0,43.9-12.2,53.1-22.8v0.2c-2.8,16-0.7,22.6,17.1,22.6
	c8.5,0,12-2.1,12-2.1s-2.3-4.8,0-18.3c5.5-32.2,13.1-46.3,21.9-58.4C459.7,78,464.8,75,468.5,75c3.5,0,4.8,1.8,4.8,5
	c0,6.2-3,11.4-3,11.4s4.4,1.4,10.4,1.4c11.3,0,19.1-9.1,19.1-21.9C500,59.2,492.9,53,481.6,53z M358.2,64.4c4.8,0,8.1,3.2,8.1,8
	c0,15.1-11.8,29-39.9,35.6C328.9,79.5,345,64.4,358.2,64.4z M132.7,64.4c4.8,0,8.1,3.2,8.1,8c0,15.1-11.8,29-39.9,35.6
	C103.4,79.5,119.5,64.4,132.7,64.4z M200.5,232c-7.1,0-10.6-4.3-10.6-10.3c0-8,4.6-15.8,13.6-24.4c6.7-6.6,17.3-13.2,32.5-21
	C229.1,212.8,216.6,232,200.5,232z M250.7,90.2c-4.4,22.8-16.6,57.1-33,57.1c-8.5,0-13.6-6.2-13.6-18.9c0-36.8,17.8-59.8,33.4-59.8
	c8.8,0,13.1,6.4,15.2,11L250.7,90.2z M481.7,306.5c-3.1-1.9-6.7-3.1-10.5-4.5s-5.7-3-5.7-4.7c0-2.2,2.1-3.4,6.2-3.4
	c3.9,0,8.4,1.5,13.8,4.2v-8.6c-4.8-2.3-9.7-3.5-14.3-3.5c-9.7,0-15.9,5.1-15.9,12.2c0,7.7,5.2,11.2,15.8,14.9
	c3.7,1.3,5.6,2.1,5.6,4.6s-2.2,3.8-6.3,3.8c-4.8,0-9.1-2-14.4-5.3v9.4c4.5,2.7,9.4,4.1,14.6,4.1c10.6,0,16.7-4.9,16.7-12.5
	C487.3,312.3,485.4,308.8,481.7,306.5z M210.8,328.8h10.9v-42.2h-10.9V328.8z M162.8,286.6h-10.6v42.2H181v-8.2h-18.2V286.6z
	 M288.1,291c-5.3-4-10.7-4.4-17.4-4.4h-15.8v42.2h15.8c6.1,0,11-0.2,15.8-3.2c6.4-4.1,9.9-10.4,9.9-17.9
	C296.3,300.8,293.5,295.1,288.1,291z M273.3,320.3h-7.8v-25.1h7.8c7.2,0,12.2,5.2,12.2,12.5C285.4,315.1,280.5,320.3,273.3,320.3z
	 M350.7,286.6h-12.2l-18.4,42.2h11.2l3.4-8.2h18.2l3,8.2h11.2L350.7,286.6z M337.8,313.4l6.5-16.1l5.9,16.1H337.8z M407.5,300.3
	l-9.3-13.7h-12.7l16.6,23.1v19.1h10.6v-19.2l16.8-23H417L407.5,300.3z M35.3,303.6H16.5v-16.9H5.9v42.2h10.6v-17.1h18.8v17.1h10.6
	v-42.2H35.3V303.6z M116,291.9c-4.3-4-9.7-6-16.4-6c-6.7,0-12,2-16.3,6c-4.3,4.1-6.6,9.5-6.6,15.8c0,6.2,2.3,11.7,6.6,15.8
	c4.3,4,9.6,6.1,16.3,6.1c6.7,0,12.1-2,16.4-6.1s6.6-9.5,6.6-15.8S120.3,296.1,116,291.9z M99.6,320.7c-7,0-12-5.3-12-12.9
	s5.1-13,12-13c7,0,12,5.4,12,13C111.7,315.4,106.6,320.7,99.6,320.7z M142.6,221.7H5.9v3.7h136.7L142.6,221.7L142.6,221.7z
	 M485.4,221.7H285.9v3.7h199.5V221.7z"/>
</svg>
